<?xml version="1.0" standalone="no"?>
<!DOCTYPE svg PUBLIC "-//W3C//DTD SVG 20010904//EN"
 "http://www.w3.org/TR/2001/REC-SVG-20010904/DTD/svg10.dtd">
<svg version="1.0" xmlns="http://www.w3.org/2000/svg"
 width="700.000000pt" height="700.000000pt" viewBox="0 0 700.000000 700.000000"
 preserveAspectRatio="xMidYMid meet">
<metadata>
Created by potrace 1.14, written by Peter Selinger 2001-2017
</metadata>
<g transform="translate(0.000000,700.000000) scale(0.100000,-0.100000)"
fill="#000000" stroke="none">
<path d="M1637 6404 c-213 -40 -398 -216 -453 -434 -16 -60 -17 -241 -18
-2154 -1 -1552 2 -2107 11 -2158 22 -135 93 -263 190 -348 57 -48 185 -113
263 -131 81 -19 4237 -18 4325 1 222 47 412 242 449 461 10 58 12 534 11 2184
-2 1988 -3 2113 -19 2165 -10 30 -28 75 -41 101 -23 49 -111 169 -123 169 -4
0 -20 13 -37 28 -39 37 -205 123 -205 107 0 -3 -12 1 -27 7 -42 18 -4231 19
-4326 2z m2298 -878 c477 -84 846 -441 951 -921 27 -125 24 -347 -5 -450 -49
-174 -142 -327 -286 -470 -143 -144 -296 -250 -510 -355 -258 -126 -352 -146
-457 -97 -177 82 -231 291 -115 443 37 49 89 83 169 113 91 33 246 114 343
179 204 136 308 286 299 431 -15 266 -205 490 -461 547 -120 26 -280 3 -396
-58 -118 -62 -220 -181 -281 -332 -57 -138 -198 -207 -346 -169 -124 32 -214
148 -213 278 0 47 9 82 36 149 153 374 483 641 882 711 77 14 316 14 390 1z
m-61 -2924 c67 -23 139 -96 167 -171 42 -110 4 -249 -87 -321 -152 -121 -369
-74 -450 98 -65 137 -10 308 121 379 42 23 123 41 165 36 19 -2 57 -12 84 -21z"/>
<path d="M824 5721 c-97 -72 -177 -183 -216 -301 l-22 -65 -1 -2121 c-1 -1673
1 -2134 11 -2183 44 -212 202 -382 419 -447 57 -18 162 -18 2195 -19 l2135 0
70 22 c121 38 233 117 306 217 16 21 27 41 25 45 -2 3 -962 6 -2133 6 -2211
-1 -2199 -1 -2313 40 -207 74 -372 270 -416 495 -4 19 -8 1001 -8 2182 -1
1180 -4 2149 -7 2152 -3 3 -23 -7 -45 -23z"/>
</g>
</svg>
