<?xml version="1.0" standalone="no"?>
<!DOCTYPE svg PUBLIC "-//W3C//DTD SVG 20010904//EN"
 "http://www.w3.org/TR/2001/REC-SVG-20010904/DTD/svg10.dtd">
<svg version="1.0" xmlns="http://www.w3.org/2000/svg"
 width="700.000000pt" height="700.000000pt" viewBox="0 0 700.000000 700.000000"
 preserveAspectRatio="xMidYMid meet">
<metadata>
Created by potrace 1.11, written by Peter Selinger 2001-2013
</metadata>
<g transform="translate(0.000000,700.000000) scale(0.100000,-0.100000)"
fill="#000000" stroke="none">
<path d="M2240 6408 c-225 -34 -415 -210 -477 -443 -4 -16 -9 -856 -10 -1865
-3 -2029 -7 -1887 63 -2030 27 -53 58 -95 108 -145 80 -80 157 -124 266 -154
75 -21 79 -21 1915 -19 l1840 3 66 22 c64 22 160 78 213 124 41 35 101 117
132 178 61 122 57 -13 59 1986 2 1956 4 1878 -47 1998 -26 64 -87 148 -147
205 -43 40 -182 118 -226 126 -11 3 -38 9 -60 14 -51 11 -3618 11 -3695 0z
m2095 -898 c89 -23 200 -72 272 -121 66 -45 168 -153 208 -220 121 -206 135
-500 32 -688 -60 -110 -119 -182 -287 -351 -213 -212 -244 -272 -249 -476 -1
-49 -4 -91 -7 -95 -2 -5 -101 -8 -218 -8 -163 0 -215 3 -219 13 -8 21 1 249
12 298 37 165 87 238 320 468 245 242 273 286 277 435 3 145 -69 261 -196 319
-128 59 -296 51 -415 -19 -64 -37 -144 -131 -183 -215 -20 -41 -37 -77 -39
-79 -2 -4 -199 76 -336 136 -67 30 -67 25 -4 152 69 141 177 263 304 344 107
69 196 102 343 131 60 12 307 -4 385 -24z m-115 -2308 c110 -52 172 -158 166
-285 -13 -260 -317 -385 -505 -209 -70 66 -96 126 -96 227 1 64 5 89 24 127
76 151 258 213 411 140z"/>
<path d="M585 3158 c2 -1976 3 -2096 19 -2148 21 -62 58 -140 90 -184 63 -88
193 -181 306 -218 l65 -21 2093 -2 2092 -2 0 293 0 292 -2039 -1 c-1806 -2
-2040 0 -2043 13 -2 8 -3 927 -2 2043 l0 2027 -291 0 -291 0 1 -2092z"/>
</g>
</svg>
