<?xml version="1.0" standalone="no"?>
<!DOCTYPE svg PUBLIC "-//W3C//DTD SVG 20010904//EN"
 "http://www.w3.org/TR/2001/REC-SVG-20010904/DTD/svg10.dtd">
<svg version="1.0" xmlns="http://www.w3.org/2000/svg"
 width="700.000000pt" height="700.000000pt" viewBox="0 0 700.000000 700.000000"
 preserveAspectRatio="xMidYMid meet">
<metadata>
Created by potrace 1.14, written by Peter Selinger 2001-2017
</metadata>
<g transform="translate(0.000000,700.000000) scale(0.100000,-0.100000)"
fill="#000000" stroke="none">
<path d="M3345 6152 c-127 -56 -147 -65 -314 -144 -68 -32 -125 -58 -127 -58
-6 0 -577 -286 -648 -324 -34 -18 -101 -55 -151 -82 -49 -26 -108 -58 -130
-71 -22 -12 -47 -26 -55 -30 -8 -4 -52 -29 -98 -55 -46 -26 -86 -48 -88 -48
-3 0 -30 -16 -60 -35 -30 -19 -56 -35 -58 -35 -6 0 -243 -142 -427 -256 -327
-202 -782 -504 -868 -576 -96 -81 -91 -249 10 -329 24 -20 85 -43 209 -79 394
-114 985 -311 1187 -395 l33 -14 11 42 c27 101 105 215 194 283 47 36 348 215
563 334 219 122 406 220 681 357 215 107 238 116 290 116 195 0 291 -232 153
-369 -16 -16 -143 -86 -283 -157 -336 -168 -490 -250 -744 -395 -71 -41 -146
-83 -165 -94 -234 -133 -270 -164 -272 -234 -1 -51 1 -55 50 -75 26 -11 61
-27 77 -35 17 -7 95 -43 175 -78 253 -112 686 -323 865 -421 111 -61 180 -61
290 0 191 106 660 332 950 459 72 32 144 63 160 71 17 7 82 34 145 59 63 26
124 51 135 56 160 74 960 356 1190 420 17 5 62 18 100 30 39 12 104 30 145 41
100 26 159 48 193 72 72 50 106 165 73 250 -28 74 -31 76 -421 337 -495 331
-996 630 -1550 925 -106 57 -638 323 -710 355 -27 12 -88 40 -135 62 -411 192
-413 192 -575 120z"/>
<path d="M957 3433 c-3 -5 -8 -48 -11 -98 -4 -49 -9 -103 -11 -120 -4 -28 -9
-98 -20 -280 -3 -38 -7 -99 -10 -135 -9 -117 -19 -402 -19 -540 -1 -208 12
-222 284 -339 104 -45 237 -104 296 -131 58 -28 110 -50 115 -50 41 0 -126
-254 -267 -405 -63 -68 -77 -99 -78 -170 -1 -131 95 -222 230 -218 59 2 110
32 179 105 136 144 221 261 300 411 19 37 40 67 46 67 10 0 192 -93 294 -150
17 -10 66 -36 110 -60 44 -24 109 -60 144 -81 34 -22 65 -39 67 -39 14 0 427
-253 641 -393 174 -113 186 -119 253 -119 67 0 79 5 249 116 114 75 427 270
506 316 217 125 326 187 465 262 167 91 640 329 760 383 36 16 102 46 147 67
46 21 85 38 87 38 3 0 33 13 68 29 35 16 97 43 138 60 100 42 141 73 171 124
22 38 24 52 23 167 0 117 -11 422 -19 535 -2 28 -6 94 -9 148 -9 149 -17 249
-21 282 -2 17 -7 73 -11 125 -3 52 -8 96 -9 98 -11 12 -613 -207 -933 -339
-414 -170 -967 -429 -1255 -587 -128 -70 -214 -95 -340 -98 -123 -3 -208 16
-317 70 -36 18 -182 91 -325 163 -236 119 -343 171 -490 238 -153 70 -189 85
-192 81 -3 -2 -4 -44 -4 -93 0 -80 2 -89 23 -103 45 -29 119 -113 143 -161 47
-92 61 -198 39 -304 -20 -98 -120 -233 -209 -280 -35 -19 -39 -25 -60 -110
-24 -93 -77 -245 -114 -327 -19 -42 -24 -46 -44 -39 -39 15 -352 172 -361 181
-5 6 1 33 16 67 24 56 40 92 43 103 1 3 7 23 14 45 33 105 34 99 -24 159 -117
122 -155 304 -95 456 34 85 105 176 163 206 l27 15 0 188 0 188 -152 57 c-84
32 -162 62 -173 66 -44 20 -447 159 -462 160 -1 0 -4 -3 -6 -7z"/>
</g>
</svg>
